<svg xmlns="http://www.w3.org/2000/svg" width="122.918" height="102.952" viewBox="0 0 122.918 102.952"><g transform="translate(0 4)"><path d="M116.524,0H19.271a6.4,6.4,0,0,0-6.394,6.394V19.6H6.394A6.4,6.4,0,0,0,0,25.994V89.511A6.4,6.4,0,0,0,6.394,95.9H37.083a6.4,6.4,0,0,0,6.394-6.394V75.954h15.4L52.964,92.845H48.5a1.279,1.279,0,0,0,0,2.557H91.369a1.279,1.279,0,1,0,0-2.557H86.156L81.122,75.954h35.4a6.4,6.4,0,0,0,6.394-6.394V6.395A6.4,6.4,0,0,0,116.524,0M19.271,2.558h97.253a3.84,3.84,0,0,1,3.836,3.836V7.778H15.435V6.395a3.84,3.84,0,0,1,3.836-3.836M40.919,89.511a3.84,3.84,0,0,1-3.836,3.836H6.394a3.84,3.84,0,0,1-3.836-3.836V25.994a3.84,3.84,0,0,1,3.836-3.836h5.957V22.8a2.558,2.558,0,0,0,2.557,2.557H27.845A2.558,2.558,0,0,0,30.4,22.8v-.642h6.68a3.84,3.84,0,0,1,3.836,3.836Zm42.567,3.334H55.674l5.911-16.891H78.453ZM116.524,73.4H43.477v-8.9h17.2a1.279,1.279,0,0,0,0-2.557h-17.2V25.994A6.4,6.4,0,0,0,37.083,19.6H15.435V10.336H120.361v51.6H78.767a1.279,1.279,0,1,0,0,2.557h41.594V69.56a3.84,3.84,0,0,1-3.836,3.836" transform="translate(0 3.047)" fill="#0098cf"/><path d="M37.484,138.024H19a1.279,1.279,0,1,0,0,2.557h18.48a1.279,1.279,0,1,0,0-2.557" transform="translate(-6.392 -46.729)" fill="#0098cf"/><path d="M109.5,96.871h-6.022a1.279,1.279,0,1,0,0,2.557H109.5a1.279,1.279,0,1,0,0-2.557" transform="translate(-36.856 -31.887)" fill="#0098cf"/><text transform="translate(50.459 56)" fill="#a4005d" font-size="56" font-family="SegoeUIBlack, Segoe UI"><tspan x="0" y="0">+</tspan></text></g></svg>