<svg xmlns="http://www.w3.org/2000/svg" width="156.787" height="48" viewBox="0 0 156.787 48"><path d="M53.667,32.848c0-4.619-3.7-5.916-6.963-5.916-4.682,0-8.565,2.587-8.565,8.01V53.6H26.868V32.848c0-4.619-3.7-5.916-6.857-5.916-4.806,0-8.684,2.587-8.684,8.01V53.6H0V19.109H10.965V24.1h.125c2.032-2.9,7.481-5.916,14.113-5.916s10.167,2.593,11.888,6.533c3.117-4.127,7.954-6.527,14.238-6.527,6.963,0,13.714,2.955,13.714,12.013V53.551H53.667Z" transform="translate(0 -6.847)" fill="#7d7f82"/><rect width="11.333" height="46.704" transform="translate(110.37)" fill="#7d7f82"/><rect width="11.327" height="46.704" transform="translate(128.311)" fill="#7d7f82"/><path d="M238.993,21.7a8.52,8.52,0,0,1-5.673-2.157V54.063h11.339v-34.5a8.5,8.5,0,0,1-5.667,2.138" transform="translate(-87.872 -7.359)" fill="#7d7f82"/><path d="M239.068.29a5.548,5.548,0,1,1-5.548,5.548A5.548,5.548,0,0,1,239.068.29" transform="translate(-87.947 -0.109)" fill="#b1005d"/><path d="M161.36,41.237a18.416,18.416,0,0,0-2.6-8.727L147.92,40.464l13.44.773" transform="translate(-55.709 -12.244)" fill="#b1005d" fill-rule="evenodd"/><path d="M157.841,28.346A18.224,18.224,0,0,0,151.258,22l-5.5,12.281,12.081-5.941Z" transform="translate(-54.895 -8.286)" fill="#b1005d" fill-rule="evenodd"/><path d="M159.364,55.742a18.187,18.187,0,0,0,2.051-8.9L148.05,48.448Z" transform="translate(-55.758 -17.641)" fill="#b1005d" fill-rule="evenodd"/><path d="M148.95,20.472a18.124,18.124,0,0,0-8.84-2.282l1.247,13.4,7.58-11.121Z" transform="translate(-52.768 -6.851)" fill="#b1005d"/><path d="M157.252,63.976a18.543,18.543,0,0,0,3.435-4.414c.062-.112.118-.224.181-.33L152.29,55.66a27.017,27.017,0,0,1,4.987,8.316Z" transform="translate(-57.355 -20.963)" fill="#b1005d" fill-rule="evenodd"/><path d="M113.434,32.73l-.187.324A18.413,18.413,0,0,0,111.29,38.3a26.993,26.993,0,0,1,9.681-.137l-7.537-5.43" transform="translate(-41.914 -12.327)" fill="#b1005d" fill-rule="evenodd"/><path d="M128.222,47.467a31.621,31.621,0,0,0-17.33-3.99,18.334,18.334,0,0,0,29.835,16.676,31.592,31.592,0,0,0-12.468-12.686Z" transform="translate(-41.696 -16.354)" fill="#b1005d" fill-rule="evenodd"/><path d="M134.447,18.19a18.417,18.417,0,0,0-8.827,2.375l7.717,11.04L134.46,18.19Z" transform="translate(-47.31 -6.851)" fill="#b1005d" fill-rule="evenodd"/><path d="M121.408,22.16a18.187,18.187,0,0,0-6.508,6.408l12.137,5.816-5.61-12.225Z" transform="translate(-43.273 -8.346)" fill="#b1005d" fill-rule="evenodd"/></svg>