<svg xmlns="http://www.w3.org/2000/svg" width="123.604" height="96.439" viewBox="0 0 123.604 96.439"><path d="M117.175,0h-97.8A6.436,6.436,0,0,0,12.949,6.43V19.709H6.429A6.436,6.436,0,0,0,0,26.139V90.011A6.436,6.436,0,0,0,6.429,96.44H37.29a6.437,6.437,0,0,0,6.429-6.429V76.378H59.2L53.26,93.364H48.767a1.286,1.286,0,1,0,0,2.572H91.879a1.286,1.286,0,0,0,0-2.572H86.637L81.575,76.378h35.6a6.436,6.436,0,0,0,6.429-6.429V6.43A6.436,6.436,0,0,0,117.175,0m-97.8,2.572h97.8a3.861,3.861,0,0,1,3.858,3.858V7.822H15.521V6.43a3.861,3.861,0,0,1,3.858-3.858M41.148,90.011a3.862,3.862,0,0,1-3.858,3.858H6.429a3.861,3.861,0,0,1-3.858-3.858V26.139a3.861,3.861,0,0,1,3.858-3.858h5.99v.646A2.572,2.572,0,0,0,14.991,25.5H28a2.572,2.572,0,0,0,2.572-2.572v-.646H37.29a3.862,3.862,0,0,1,3.858,3.858Zm42.805,3.353H55.985l5.944-16.986H78.891Zm33.222-19.557H43.719V64.854h17.3a1.286,1.286,0,0,0,0-2.572h-17.3V26.139a6.437,6.437,0,0,0-6.429-6.429H15.521V10.393H121.033V62.282H79.207a1.286,1.286,0,0,0,0,2.572h41.826v5.1a3.861,3.861,0,0,1-3.858,3.858" transform="translate(0 -0.001)" fill="#0098cf"/><path d="M37.594,138.024H19.011a1.286,1.286,0,1,0,0,2.572H37.594a1.286,1.286,0,1,0,0-2.572" transform="translate(-6.329 -49.285)" fill="#0098cf"/><path d="M109.537,96.871h-6.055a1.286,1.286,0,1,0,0,2.572h6.055a1.286,1.286,0,0,0,0-2.572" transform="translate(-36.491 -34.59)" fill="#0098cf"/><path d="M131.418,78.423h-2.455v-4.5h2.455Zm-6.137,0h-2.455v-4.5h2.455Zm-6.136,0h-2.454v-4.5h2.454Zm-6.137,0h-2.454v-4.5h2.454Zm-6.137,0h-2.454v-4.5h2.454Zm-6.136,0H98.281v-4.5h2.455Zm-6.137,0H92.144v-4.5H94.6Zm-6.137,0H86.007v-4.5h2.455Zm-6.137,0H79.87v-4.5h2.455Zm-6.136,0H73.734v-4.5h2.455Z" transform="translate(-26.328 -26.396)" fill="#a4005d"/><path d="M177.564,78.423H175.11v-4.5h2.455Zm-6.137,0h-2.455v-4.5h2.455Z" transform="translate(-60.335 -26.396)" fill="#a4005d"/><path d="M41.919,127.3H39.465v-4.5h2.454Zm-6.136,0H33.329v-4.5h2.455Zm-6.137,0H27.192v-4.5h2.455Zm-6.137,0H21.055v-4.5H23.51Zm-6.136,0H14.919v-4.5h2.455Zm-6.137,0H8.782v-4.5h2.455Z" transform="translate(-3.136 -43.847)" fill="#a4005d"/></svg>