<svg xmlns="http://www.w3.org/2000/svg" width="79.629" height="96.971" viewBox="0 0 79.629 96.971"><path d="M.009,48.455q0-20.295,0-40.589C.011,2.719,2.7,0,7.824,0Q40.672,0,73.519,0c4.185,0,6.087,1.905,6.087,6.1q0,37.127.023,74.253c0,2.387-.607,4.3-2.749,5.6a2.009,2.009,0,0,0-.673,1.432c-.093,1.444.012,2.9-.056,4.346a5.121,5.121,0,0,1-5.061,5.2c-.428.035-.858.037-1.287.037-20.557,0-41.113.025-61.67-.044a10.829,10.829,0,0,1-4.763-1.074C.927,94.592,0,92.27,0,89.528Q.03,68.992.009,48.455m17.337,34.5v-2.08q0-28.5,0-57c0-.536-.17-1.191.075-1.581.377-.6,1.035-1.4,1.59-1.411s1.3.737,1.646,1.336a4.163,4.163,0,0,1,.123,1.9q.006,28.582-.031,57.164c0,1.5.434,1.87,1.893,1.866,16.849-.048,33.7-.029,50.547-.032,2.621,0,2.98-.362,2.98-2.984q0-36.876,0-73.751c0-2.582-.386-2.957-3-2.957q-32.517,0-65.034,0C4.6,3.423,3.5,4.514,3.5,8.023q0,37.117,0,74.233v1.662c4.576-1.566,9.183-.354,13.848-.96m55.375,3.576h-2q-31.213,0-62.427,0c-2.93,0-4.814,1.417-4.779,3.584.037,2.227,1.643,3.385,4.706,3.385q30.731,0,61.462,0a12.227,12.227,0,0,0,1.286-.022A1.742,1.742,0,0,0,72.7,91.713c.06-1.649.016-3.3.016-5.178" transform="translate(0 0)" fill="#0098cf"/><path d="M30.367,15.968c0,1.07.024,2.142-.007,3.21-.032,1.093-.487,1.9-1.706,1.9-1.2,0-1.7-.744-1.706-1.876q-.01-3.292,0-6.582a1.618,1.618,0,0,1,1.606-1.829c1.176-.057,1.751.692,1.8,1.811s.01,2.247.01,3.371h.005" transform="translate(-9.595 -3.84)" fill="#0098cf"/><path d="M14.208,108.305c-.535,0-1.073.032-1.6-.009a1.649,1.649,0,0,1-1.744-1.712,1.616,1.616,0,0,1,1.7-1.743c1.066-.061,2.14-.038,3.209-.016,1.115.023,1.9.563,1.914,1.717s-.755,1.706-1.872,1.76c-.534.026-1.069,0-1.6,0" transform="translate(-3.867 -37.323)" fill="#0098cf"/><path d="M14.289,14.129c-.641,0-1.422.229-1.888-.056-.623-.382-1.408-1.188-1.372-1.766s.936-1.38,1.59-1.539A12.821,12.821,0,0,1,15.97,10.7a1.643,1.643,0,0,1,1.777,1.677,1.659,1.659,0,0,1-1.695,1.767,15.634,15.634,0,0,1-1.764.012v-.03" transform="translate(-3.927 -3.783)" fill="#0098cf"/><path d="M14.275,94.805c-.588,0-1.295.206-1.737-.049-.645-.372-1.514-1.07-1.52-1.637a2.317,2.317,0,0,1,1.451-1.675,12.292,12.292,0,0,1,3.508-.082,1.643,1.643,0,0,1,1.767,1.694c0,1.147-.732,1.721-1.865,1.759-.534.018-1.069,0-1.6,0v-.013" transform="translate(-3.924 -32.506)" fill="#0098cf"/><path d="M14.275,118.3c.535,0,1.07-.016,1.6,0a1.665,1.665,0,0,1,1.809,1.65,1.618,1.618,0,0,1-1.66,1.789,23.779,23.779,0,0,1-3.526,0,1.6,1.6,0,0,1-1.635-1.8,1.63,1.63,0,0,1,1.8-1.637c.534-.017,1.069,0,1.6,0" transform="translate(-3.869 -42.128)" fill="#0098cf"/><path d="M14.426,24.18c.589,0,1.279-.194,1.738.049.623.33,1.509,1.021,1.482,1.51a2.329,2.329,0,0,1-1.37,1.743,10.366,10.366,0,0,1-3.966-.005,2.105,2.105,0,0,1-1.3-1.614c.087-.619.875-1.292,1.522-1.632.5-.263,1.254-.052,1.9-.051" transform="translate(-3.919 -8.582)" fill="#0098cf"/><path d="M14.323,81.361a4.588,4.588,0,0,1-1.9-.053c-.612-.311-1.393-1-1.418-1.559a2.12,2.12,0,0,1,1.247-1.662,11.841,11.841,0,0,1,4.126,0,2.126,2.126,0,0,1,1.271,1.655c-.026.56-.816,1.251-1.435,1.567-.509.259-1.255.053-1.9.053" transform="translate(-3.92 -27.744)" fill="#0098cf"/><path d="M14.243,41.011c-.587,0-1.178.048-1.759-.01-1.062-.108-1.823-.771-1.552-1.788a2.562,2.562,0,0,1,1.625-1.532,8.075,8.075,0,0,1,3.492.006c.641.151,1.532,1.012,1.546,1.573s-.824,1.314-1.462,1.684c-.49.285-1.248.109-1.888.138,0-.024,0-.047,0-.071" transform="translate(-3.873 -13.352)" fill="#0098cf"/><path d="M14.307,54.527a5.589,5.589,0,0,1-2.049-.157c-.565-.277-1.295-1.021-1.261-1.513a2.191,2.191,0,0,1,1.265-1.65,11.124,11.124,0,0,1,3.969-.026c.579.1,1.462,1.036,1.414,1.513A2.84,2.84,0,0,1,16.2,54.4c-.484.274-1.248.054-1.888.054,0,.026,0,.051,0,.076" transform="translate(-3.916 -18.168)" fill="#0098cf"/><path d="M14.18,67.9c-.534,0-1.068.021-1.6,0-1.08-.05-1.856-.673-1.64-1.7a2.491,2.491,0,0,1,1.544-1.607,8.619,8.619,0,0,1,3.647.006A2.284,2.284,0,0,1,17.6,66.223c-.011.565-.879,1.276-1.531,1.616-.5.263-1.254.052-1.894.052V67.9" transform="translate(-3.883 -22.934)" fill="#0098cf"/><g transform="translate(32.676 29.61)"><path d="M62.216,67.194a3.907,3.907,0,0,0-5.439-2.561,4.63,4.63,0,0,0-1.16.831q-2.922,2.876-5.8,5.792a3.875,3.875,0,1,0,5.5,5.457c1.17-1.155,2.328-2.321,3.492-3.481a.779.779,0,0,1,.128-.077,6.07,6.07,0,0,0,4.5,1.11c-.157.18-.244.292-.344.392-1.658,1.659-3.3,3.338-4.981,4.97A7.92,7.92,0,0,1,44.7,75.516a7.382,7.382,0,0,1,1.932-6.762c1.912-2.028,3.877-4.014,5.915-5.914a7.9,7.9,0,0,1,11.714,1.2.87.87,0,0,1,.093,1.049,5.275,5.275,0,0,1-2.139,2.1" transform="translate(-44.536 -51.234)" fill="#a4005d"/><path d="M70.929,51.35a6.012,6.012,0,0,0-4.476-1.162c.02-.079.017-.124.039-.145,1.911-1.9,3.751-3.886,5.755-5.686A7.886,7.886,0,0,1,83.407,55.421a80.1,80.1,0,0,1-6.383,6.386,7.861,7.861,0,0,1-11.5-1.413.833.833,0,0,1-.073-1A4.83,4.83,0,0,1,67.6,57.324a3.909,3.909,0,0,0,4.21,2.851,3.551,3.551,0,0,0,2.265-1.049c2.02-2,4.046-4,6.033-6.039a3.832,3.832,0,0,0-.037-5.434,3.9,3.9,0,0,0-5.451-.017c-.63.6-1.234,1.222-1.846,1.838s-1.214,1.236-1.841,1.876" transform="translate(-54.498 -42.45)" fill="#a4005d"/></g></svg>