<svg xmlns="http://www.w3.org/2000/svg" width="96.914" height="98.73" viewBox="0 0 96.914 98.73"><g transform="translate(0 0)"><path d="M104.738,80.312a1.4,1.4,0,0,1-.723-2.591l19.953-12.057-16.111-9.23a1.4,1.4,0,0,1,1.388-2.423l18.17,10.409a1.4,1.4,0,0,1,.028,2.407L105.459,80.111a1.391,1.391,0,0,1-.72.2" transform="translate(-31.204 -16.253)" fill="#0098cf"/><path d="M23.47,80.365a1.389,1.389,0,0,1-.718-.2L.677,66.882a1.4,1.4,0,0,1,.04-2.416L19.165,54.178a1.4,1.4,0,0,1,1.36,2.439L4.181,65.731l20.01,12.041a1.4,1.4,0,0,1-.721,2.593" transform="translate(0 -16.306)" fill="#0098cf"/><path d="M49.2,124.348a1.4,1.4,0,0,1-.7-.186L.7,96.705a1.4,1.4,0,0,1,.015-2.43l16.6-9.257a1.4,1.4,0,0,1,1.36,2.439L4.231,95.512l44.958,25.824L92.745,95.515,78.724,87.483a1.4,1.4,0,1,1,1.388-2.422l16.1,9.223a1.4,1.4,0,0,1,.018,2.412L49.912,124.153a1.4,1.4,0,0,1-.712.195" transform="translate(0 -25.618)" fill="#0098cf"/><path d="M44.645,96.065a1.383,1.383,0,0,1-.7-.188l-3.626-2.1a1.4,1.4,0,1,1,1.4-2.417l3.626,2.1a1.4,1.4,0,0,1-.7,2.6" transform="translate(-11.965 -27.531)" fill="#0098cf"/><path d="M56.618,102.984a1.385,1.385,0,0,1-.7-.188l-3.9-2.251a1.4,1.4,0,0,1,1.4-2.417l3.9,2.251a1.4,1.4,0,0,1-.7,2.6" transform="translate(-15.499 -29.573)" fill="#0098cf"/><path d="M68.439,109.816a1.4,1.4,0,0,1-.7-.188l-3.626-2.1a1.4,1.4,0,0,1,1.4-2.417l2.934,1.7,2.947-1.673a1.4,1.4,0,1,1,1.379,2.428l-3.643,2.068a1.394,1.394,0,0,1-.689.182" transform="translate(-19.149 -31.683)" fill="#0098cf"/><path d="M81.325,103.4a1.4,1.4,0,0,1-.69-2.61l3.648-2.071a1.4,1.4,0,1,1,1.379,2.428l-3.649,2.071a1.388,1.388,0,0,1-.688.182" transform="translate(-24.134 -29.755)" fill="#0098cf"/><path d="M92.649,96.979a1.4,1.4,0,0,1-.69-2.61L95.6,92.3a1.4,1.4,0,1,1,1.379,2.428L93.337,96.8a1.388,1.388,0,0,1-.688.182" transform="translate(-27.554 -27.816)" fill="#0098cf"/><path d="M44.645,65.875a1.383,1.383,0,0,1-.7-.188l-3.626-2.1a1.4,1.4,0,1,1,1.4-2.417l3.626,2.1a1.4,1.4,0,0,1-.7,2.6" transform="translate(-11.965 -18.415)" fill="#a4005d"/><path d="M56.618,72.794a1.385,1.385,0,0,1-.7-.188l-3.9-2.25a1.4,1.4,0,0,1,1.4-2.417l3.9,2.251a1.4,1.4,0,0,1-.7,2.6" transform="translate(-15.499 -20.457)" fill="#a4005d"/><path d="M68.439,79.626a1.4,1.4,0,0,1-.7-.188l-3.626-2.1a1.4,1.4,0,0,1,1.4-2.417l2.934,1.7,2.947-1.673a1.4,1.4,0,1,1,1.379,2.428l-3.643,2.068a1.394,1.394,0,0,1-.689.182" transform="translate(-19.149 -22.567)" fill="#a4005d"/><path d="M81.325,73.214a1.4,1.4,0,0,1-.69-2.61l3.648-2.071a1.4,1.4,0,1,1,1.379,2.428l-3.649,2.071a1.388,1.388,0,0,1-.688.182" transform="translate(-24.134 -20.639)" fill="#a4005d"/><path d="M92.649,66.788a1.4,1.4,0,0,1-.69-2.61L95.6,62.11a1.4,1.4,0,1,1,1.379,2.428l-3.643,2.068a1.388,1.388,0,0,1-.688.182" transform="translate(-27.554 -18.699)" fill="#a4005d"/><path d="M23.47,42.67a1.388,1.388,0,0,1-.718-.2L.677,29.187a1.4,1.4,0,0,1,.04-2.416L48.414.177a1.4,1.4,0,0,1,1.374.008L96.212,26.778a1.4,1.4,0,0,1,.028,2.407L74.256,42.469a1.4,1.4,0,1,1-1.444-2.39L92.765,28.022,49.085,3,4.181,28.036l20.01,12.041a1.4,1.4,0,0,1-.721,2.593" transform="translate(0 0)" fill="#a4005d"/></g></svg>